<?xml version="1.0" encoding="utf-8"?>
<!-- Generator: Adobe Illustrator 16.0.0, SVG Export Plug-In . SVG Version: 6.00 Build 0)  -->
<!DOCTYPE svg PUBLIC "-//W3C//DTD SVG 1.1//EN" "http://www.w3.org/Graphics/SVG/1.1/DTD/svg11.dtd">
<svg version="1.1" id="Vrstva_1" xmlns="http://www.w3.org/2000/svg" xmlns:xlink="http://www.w3.org/1999/xlink" x="0px" y="0px"
	 width="164.93px" height="164.925px" viewBox="0 0 164.93 164.925" enable-background="new 0 0 164.93 164.925"
	 xml:space="preserve">
<g>
	<g>
		<circle fill="#FFFFFF" cx="82.467" cy="82.465" r="79.003"/>
	</g>
	<g>
		<g>
			<g>
				<polyline fill="none" points="19.157,103.915 38.848,46.294 61.242,104.855 83.824,45.392 116.557,154.048 				"/>
			</g>
			<g>
				<path fill="#808080" d="M116.557,156.216c-0.931,0-1.795-0.605-2.074-1.541L83.587,52.121l-20.316,53.505
					c-0.322,0.838-1.126,1.396-2.023,1.396c-0.005,0-0.005,0-0.005,0c-0.897,0-1.701-0.554-2.023-1.393L38.962,52.661
					l-17.755,51.957c-0.385,1.135-1.617,1.728-2.752,1.347c-1.13-0.386-1.736-1.617-1.346-2.752l19.689-57.62
					c0.293-0.864,1.097-1.45,2.012-1.467c0.931,0.025,1.735,0.542,2.062,1.393l20.363,53.25l20.562-54.147
					c0.33-0.866,1.177-1.49,2.104-1.395c0.927,0.032,1.731,0.652,1.998,1.541l32.733,108.655c0.347,1.146-0.306,2.354-1.448,2.699
					C116.972,156.187,116.765,156.216,116.557,156.216z"/>
				<path fill="#808080" d="M116.557,157.216c-1.389,0-2.636-0.928-3.032-2.255L83.478,55.226l-19.272,50.756
					c-0.47,1.223-1.659,2.041-2.958,2.041c-1.306,0-2.495-0.817-2.962-2.034L39.015,55.599l-16.862,49.342
					c-0.434,1.278-1.639,2.139-2.997,2.139c-0.346,0-0.689-0.057-1.02-0.167c-0.805-0.275-1.451-0.844-1.823-1.604
					c-0.373-0.76-0.426-1.62-0.151-2.422L35.852,45.27c0.426-1.257,1.608-2.119,2.94-2.144c1.409,0.038,2.546,0.817,3.013,2.035
					L61.231,95.96l19.63-51.693c0.504-1.321,1.788-2.177,3.142-2.035c1.29,0.042,2.463,0.947,2.854,2.249l32.732,108.654
					c0.505,1.669-0.444,3.438-2.115,3.944C117.176,157.17,116.867,157.216,116.557,157.216z M83.696,49.017l31.743,105.37
					c0.179,0.598,0.844,0.964,1.453,0.778c0.618-0.187,0.968-0.838,0.782-1.453L84.941,45.056c-0.144-0.48-0.576-0.813-1.075-0.83
					l-0.153-0.009c-0.408,0-0.813,0.313-0.983,0.761l-21.493,56.599L39.937,45.876c-0.174-0.455-0.606-0.735-1.155-0.75
					c-0.445,0.009-0.88,0.326-1.038,0.789l-19.69,57.622c-0.102,0.297-0.083,0.614,0.055,0.894c0.137,0.279,0.374,0.488,0.668,0.589
					c0.588,0.195,1.282-0.132,1.482-0.722l18.649-54.574l21.244,55.549c0.175,0.455,0.603,0.75,1.089,0.75
					c0.483,0,0.921-0.304,1.095-0.756L83.696,49.017z"/>
			</g>
		</g>
		<g>
			<g>
				<polygon fill="none" points="96.465,45.392 113.581,104.855 141.623,45.392 				"/>
			</g>
			<g>
				<path fill="#808080" d="M113.581,107.022c-0.056,0-0.114,0-0.174-0.008c-0.897-0.068-1.659-0.694-1.909-1.559L94.382,45.991
					c-0.19-0.654-0.06-1.359,0.352-1.903s1.05-0.864,1.731-0.864h45.158c0.741,0,1.436,0.379,1.829,1.008
					c0.398,0.626,0.449,1.414,0.132,2.085l-28.043,59.461C115.181,106.54,114.415,107.022,113.581,107.022z M99.344,47.56
					l14.729,51.17l24.131-51.17H99.344z"/>
				<path fill="#808080" d="M113.581,108.022c-0.098,0-0.199-0.003-0.304-0.017c-1.252-0.094-2.375-1.009-2.74-2.271L93.421,46.268
					c-0.276-0.949-0.084-1.99,0.515-2.783c0.597-0.79,1.542-1.261,2.529-1.261h45.158c1.098,0,2.098,0.552,2.677,1.478
					c0.583,0.916,0.654,2.056,0.188,3.042l-28.043,59.46C115.923,107.31,114.799,108.022,113.581,108.022z M96.465,44.225
					c-0.369,0-0.709,0.17-0.934,0.467c-0.22,0.291-0.291,0.672-0.189,1.021l17.117,59.468c0.134,0.464,0.546,0.802,1.024,0.838
					l0.098,0.005c0.448,0,0.863-0.264,1.056-0.672l28.043-59.46c0.172-0.363,0.145-0.782-0.071-1.122
					c-0.212-0.338-0.588-0.544-0.985-0.544H96.465z M113.845,101.556L98.015,46.56h41.765L113.845,101.556z M100.672,48.56
					L114.3,95.903l22.326-47.344H100.672z"/>
			</g>
		</g>
		<g>
			<g>
				<line fill="#FFFFFF" x1="138.262" y1="45.833" x2="100.813" y2="58.453"/>
			</g>
			<g>
				<path fill="#808080" d="M100.813,60.62c-0.906,0-1.748-0.569-2.053-1.476c-0.381-1.134,0.229-2.364,1.358-2.745l37.449-12.62
					c1.16-0.385,2.367,0.227,2.748,1.361c0.381,1.135-0.229,2.365-1.359,2.746l-37.449,12.62
					C101.274,60.584,101.041,60.62,100.813,60.62z"/>
			</g>
		</g>
		<g>
			<g>
				<line fill="#FFFFFF" x1="136.09" y1="57.123" x2="103.679" y2="68.046"/>
			</g>
			<g>
				<path fill="#808080" d="M103.679,70.213c-0.906,0-1.748-0.569-2.053-1.476c-0.382-1.135,0.229-2.363,1.358-2.745l32.411-10.922
					c1.156-0.381,2.367,0.227,2.748,1.361c0.381,1.134-0.229,2.364-1.359,2.745l-32.411,10.922
					C104.141,70.177,103.907,70.213,103.679,70.213z"/>
			</g>
		</g>
		<g>
			<g>
				<line fill="#FFFFFF" x1="130.29" y1="69.43" x2="106.964" y2="77.308"/>
			</g>
			<g>
				<path fill="#808080" d="M106.964,79.476c-0.906,0-1.748-0.568-2.053-1.473c-0.386-1.135,0.224-2.365,1.358-2.748l23.326-7.879
					c1.135-0.387,2.367,0.229,2.748,1.359c0.385,1.135-0.225,2.365-1.359,2.748l-23.326,7.879
					C107.43,79.44,107.192,79.476,106.964,79.476z"/>
			</g>
		</g>
		<g>
			<g>
				<line fill="#FFFFFF" x1="123.335" y1="82.465" x2="109.775" y2="87.036"/>
			</g>
			<g>
				<path fill="#808080" d="M109.775,89.204c-0.906,0-1.749-0.571-2.054-1.477c-0.385-1.133,0.225-2.363,1.359-2.744l13.56-4.572
					c1.16-0.385,2.366,0.229,2.747,1.361c0.386,1.135-0.224,2.364-1.358,2.746l-13.561,4.572
					C110.236,89.167,110.004,89.204,109.775,89.204z"/>
			</g>
		</g>
		<path fill="#808080" d="M82.465,0C36.994,0,0,36.991,0,82.46c0,45.472,36.994,82.465,82.465,82.465
			c14.927,0,24.572-2.19,35.589-8.082c1.539-0.826,2.119-2.751,1.295-4.287c-0.549-1.033-1.621-1.675-2.798-1.675
			c-0.519,0-1.033,0.129-1.49,0.373c-9.989,5.349-18.823,7.337-32.596,7.337c-41.978,0-76.13-34.152-76.13-76.131
			c0-41.976,34.152-76.125,76.13-76.125c41.979,0,76.13,34.149,76.13,76.125c0,23.461-10.631,45.271-29.165,59.835
			c-0.666,0.52-1.089,1.268-1.191,2.106c-0.104,0.842,0.128,1.672,0.651,2.34c0.604,0.769,1.512,1.209,2.493,1.209
			c0.709,0,1.404-0.24,1.956-0.677c20.076-15.77,31.591-39.394,31.591-64.813C164.93,36.991,127.937,0,82.465,0z"/>
	</g>
</g>
</svg>
