<?xml version="1.0" encoding="utf-8"?>
<!-- Generator: Adobe Illustrator 16.0.0, SVG Export Plug-In . SVG Version: 6.00 Build 0)  -->
<!DOCTYPE svg PUBLIC "-//W3C//DTD SVG 1.1//EN" "http://www.w3.org/Graphics/SVG/1.1/DTD/svg11.dtd">
<svg version="1.1" id="Vrstva_1" xmlns="http://www.w3.org/2000/svg" xmlns:xlink="http://www.w3.org/1999/xlink" x="0px" y="0px"
	 width="162.93px" height="162.925px" viewBox="0 0 162.93 162.925" enable-background="new 0 0 162.93 162.925"
	 xml:space="preserve">
<g>
	<circle fill="#FFFFFF" cx="81.467" cy="81.465" r="79.003"/>
	<g>
		<g>
			<polyline fill="none" points="18.157,102.915 37.848,45.294 60.242,103.855 82.824,44.392 115.557,153.048 			"/>
			<path fill="#101010" d="M115.557,155.216c-0.931,0-1.795-0.605-2.074-1.541L82.587,51.121l-20.316,53.505
				c-0.322,0.838-1.126,1.396-2.023,1.396c-0.005,0-0.005,0-0.005,0c-0.897,0-1.701-0.554-2.023-1.393L37.962,51.661l-17.755,51.957
				c-0.385,1.135-1.617,1.728-2.752,1.347c-1.13-0.386-1.736-1.617-1.346-2.752l19.689-57.62c0.293-0.864,1.097-1.45,2.012-1.467
				c0.931,0.025,1.735,0.542,2.062,1.393l20.363,53.25l20.562-54.147c0.33-0.866,1.177-1.49,2.104-1.395
				c0.927,0.032,1.731,0.652,1.998,1.541l32.733,108.655c0.347,1.146-0.306,2.354-1.448,2.699
				C115.972,155.187,115.765,155.216,115.557,155.216z"/>
		</g>
		<g>
			<polygon fill="none" points="95.465,44.392 112.581,103.855 140.623,44.392 			"/>
			<path fill="#101010" d="M112.581,106.022c-0.056,0-0.114,0-0.174-0.008c-0.897-0.068-1.659-0.694-1.909-1.559L93.382,44.991
				c-0.19-0.654-0.06-1.359,0.352-1.903s1.05-0.864,1.731-0.864h45.158c0.741,0,1.436,0.379,1.829,1.008
				c0.398,0.626,0.449,1.414,0.132,2.085l-28.043,59.461C114.181,105.54,113.415,106.022,112.581,106.022z M98.344,46.56
				l14.729,51.17l24.131-51.17H98.344z"/>
		</g>
		<g>
			<line fill="#FFFFFF" x1="137.262" y1="44.833" x2="99.813" y2="57.453"/>
			<path fill="#101010" d="M99.813,59.62c-0.906,0-1.748-0.569-2.053-1.476c-0.381-1.134,0.229-2.364,1.358-2.745l37.449-12.62
				c1.16-0.385,2.367,0.227,2.748,1.361c0.381,1.135-0.229,2.365-1.359,2.746l-37.449,12.62
				C100.274,59.584,100.041,59.62,99.813,59.62z"/>
		</g>
		<g>
			<line fill="#FFFFFF" x1="135.09" y1="56.123" x2="102.679" y2="67.046"/>
			<path fill="#101010" d="M102.679,69.213c-0.906,0-1.748-0.569-2.053-1.476c-0.382-1.135,0.229-2.363,1.358-2.745l32.411-10.922
				c1.156-0.381,2.367,0.227,2.748,1.361c0.381,1.134-0.229,2.364-1.359,2.745l-32.411,10.922
				C103.141,69.177,102.907,69.213,102.679,69.213z"/>
		</g>
		<g>
			<line fill="#FFFFFF" x1="129.29" y1="68.43" x2="105.964" y2="76.308"/>
			<path fill="#101010" d="M105.964,78.476c-0.906,0-1.748-0.568-2.053-1.473c-0.386-1.135,0.224-2.365,1.358-2.748l23.326-7.879
				c1.135-0.387,2.367,0.229,2.748,1.359c0.385,1.135-0.225,2.365-1.359,2.748l-23.326,7.879
				C106.43,78.44,106.192,78.476,105.964,78.476z"/>
		</g>
		<g>
			<line fill="#FFFFFF" x1="122.335" y1="81.465" x2="108.775" y2="86.036"/>
			<path fill="#101010" d="M108.775,88.204c-0.906,0-1.749-0.571-2.054-1.477c-0.385-1.133,0.225-2.363,1.359-2.744l13.56-4.572
				c1.16-0.385,2.366,0.229,2.747,1.361c0.386,1.135-0.224,2.364-1.358,2.746l-13.561,4.572
				C109.236,88.167,109.004,88.204,108.775,88.204z"/>
		</g>
		<g>
			<path fill="#101010" d="M81.465,162.925C36.543,162.925,0,126.378,0,81.46C0,36.543,36.543,0,81.465,0
				c44.921,0,81.465,36.543,81.465,81.46c0,25.109-11.375,48.448-31.209,64.027c-0.932,0.736-2.304,0.58-3.044-0.363
				c-0.737-0.94-0.576-2.304,0.368-3.04c18.779-14.758,29.55-36.856,29.55-60.624c0-42.527-34.601-77.125-77.13-77.125
				S4.335,38.933,4.335,81.46c0,42.529,34.601,77.131,77.13,77.131c13.953,0,22.916-2.02,33.067-7.455
				c1.046-0.559,2.371-0.17,2.934,0.889c0.567,1.059,0.17,2.371-0.885,2.938C105.727,160.767,96.21,162.925,81.465,162.925z"/>
		</g>
	</g>
</g>
</svg>
